Coordinates
version=1
nRows=8
nColumns=28
inDegrees=yes

Units are S.I. units (second, meters, Newtons, ...)
Angles are in degrees.

endheader
time	pelvis_tilt	pelvis_list	pelvis_rotation	pelvis_tx	pelvis_ty	pelvis_tz	hip_flexion_r	hip_adduction_r	hip_rotation_r	knee_angle_r	ankle_angle_r	subtalar_angle_r	mtp_angle_r	hip_flexion_l	hip_adduction_l	hip_rotation_l	knee_angle_l	socket_flexion	socket_adduction	socket_rotation	socket_tx	socket_ty	socket_tz	foot_flex	lumbar_extension	lumbar_bending	lumbar_rotation
      0.30833333	      1.21424746	     -4.08850513	     -7.73501756	     -0.39535825	      1.02022861	      0.28451168	     20.50752076	      1.54374246	     -5.74838998	    -66.88362954	     -0.47270513	    -18.77251809	     16.51898044	      3.57943485	     -1.29065567	     18.57043298	     -4.60996214	      6.07762303	      1.13469774	    -12.20087866	      0.04355165	     -0.01628661	      0.00861927	     -0.36940445	    -13.56184241	      1.56228863	      7.69359640
      0.31250000	      1.16220967	     -4.21390493	     -7.56486034	     -0.38986774	      1.02052365	      0.28457992	     20.89777495	      1.67041927	     -6.06632144	    -66.24869455	      0.02604727	    -18.43958896	     16.65111100	      3.01717531	     -1.47535251	     18.53517641	     -4.40762853	      5.89270922	      1.10327941	    -11.91093334	      0.04173224	     -0.01658322	      0.00833034	     -0.11435734	    -13.40846139	      1.72928350	      7.45686324
      0.31666667	      1.20800054	     -4.19731033	     -7.43750061	     -0.38572685	      1.02075979	      0.28471960	     21.40379401	      1.74960700	     -6.12592594	    -65.78680090	      0.10228497	    -18.40360472	     16.66482069	      2.81093037	     -1.44671360	     18.50769187	     -4.42654431	      5.91237171	      1.15200989	    -11.86954877	      0.04265650	     -0.01638495	      0.00809657	     -0.09061864	    -13.60080083	      1.67643602	      7.43024493
      0.32083333	      1.33071655	     -4.59060263	     -7.13606134	     -0.38034544	      1.02133608	      0.28474255	     21.43853268	      2.17304164	     -6.48797795	    -64.87650932	      1.03851911	    -17.39236036	     16.91888280	      2.16480140	     -2.00747981	     18.52805136	     -4.25742574	      5.78536570	      1.27152377	    -11.53076308	      0.04180274	     -0.01686458	      0.00662552	      0.00104668	    -13.70211445	      2.16982060	      6.79287307
      0.32500000	      1.34509097	     -4.58055144	     -6.97483378	     -0.37571782	      1.02160427	      0.28496087	     21.84721925	      2.24096695	     -6.61338862	    -64.21462585	      1.15667454	    -17.35600685	     16.92152887	      1.86310351	     -2.00131880	     18.54691664	     -4.22247334	      5.75450117	      1.28838140	    -11.39006387	      0.04194830	     -0.01666372	      0.00651913	      0.18420353	    -13.75133681	      2.09096441	      6.75703381
      0.32916667	      1.35471050	     -4.70946567	     -6.78358887	     -0.37058886	      1.02182283	      0.28487326	     22.17178067	      2.35100391	     -6.91404125	    -63.48273586	      1.51689074	    -17.21322404	     16.95032745	      1.35972178	     -2.11926475	     18.53574186	     -4.09221842	      5.62407520	      1.20577524	    -11.16430492	      0.04078417	     -0.01688377	      0.00672116	      0.34467010	    -13.75558283	      2.30170356	      6.57781295
      0.33333333	      1.39207267	     -4.70888153	     -6.63513909	     -0.36604985	      1.02209030	      0.28520002	     22.51423723	      2.44930821	     -7.00791973	    -62.71108338	      1.67623640	    -17.15283597	     16.95477539	      1.10522593	     -2.14006380	     18.52699298	     -4.09094335	      5.62733190	      1.26011561	    -11.08510916	      0.04147395	     -0.01665952	      0.00640956	      0.42193775	    -13.84429074	      2.21231086	      6.49398801
      0.33750000	      1.44599079	     -4.93857911	     -6.40877575	     -0.36083184	      1.02232552	      0.28506928	     22.71699639	      2.64222666	     -7.38472983	    -61.86279783	      2.15332290	    -16.94684771	     16.96184765	      0.50981679	     -2.38100728	     18.53100482	     -3.93752732	      5.48049613	      1.18637801	    -10.79173879	      0.04007538	     -0.01703993	      0.00652351	      0.60171372	    -13.90596021	      2.56493983	      6.17877888
